# xmcd
#
# Track frame offsets:
#	150
#	15280
#	31508
#	46225
#	57558
#	76925
#	92505
#	104338
#	113908
#	125355
#
# Disc length: 1851 seconds
#
# Revision: 4
# Processed by: cddbd v1.5.2PL0 Copyright (c) Steve Scherf et al.
# Submitted via: EasyCDDAExtractor 6.2.0.3
#
DISCID=6b07390a
DTITLE=George Strait - Lead On
DYEAR=1994
DGENRE=Country
TTITLE0=You Can't Make A Heart Love Somebody
TTITLE1=Adalida
TTITLE2=I Met a Friend of Yours Today
TTITLE3=Nobody Has to Get Hurt
TTITLE4=Down Louisiana Way
TTITLE5=Lead On
TTITLE6=What am I Waiting For
TTITLE7=The Big One
TTITLE8=I'll Always be Loving You
TTITLE9=No One but You
EXTD=YEAR: 1994
EXTT0=
EXTT1=
EXTT2=
EXTT3=
EXTT4=
EXTT5=
EXTT6=
EXTT7=
EXTT8=
EXTT9=
PLAYORDER=
